<svg width="994" height="179" viewBox="0 0 994 179" fill="none" xmlns="http://www.w3.org/2000/svg">
<path d="M499 81.3022L1 0V172.007H993V0.553076L499 81.3022Z" fill="#FFF501"/>
<path d="M0.98996 171.978H9.69935L6.22933 177.601C5.51872 178.629 5.11853 178.615 4.45999 177.601L0.98996 171.978Z" fill="#FFF501"/>
<path d="M26.9323 171.978H35.6417L32.1717 177.601C31.4611 178.629 31.0609 178.615 30.4023 177.601L26.9323 171.978Z" fill="#FFF501"/>
<path d="M9.66702 171.978H18.3764L14.9064 177.601C14.1958 178.629 13.7956 178.615 13.137 177.601L9.66702 171.978Z" fill="#FFF501"/>
<path d="M35.6094 171.978H44.3188L40.8487 177.601C40.1381 178.629 39.7379 178.615 39.0794 177.601L35.6094 171.978Z" fill="#FFF501"/>
<path d="M18.3943 171.978H27.1036L23.6336 177.601C22.923 178.629 22.5228 178.615 21.8643 177.601L18.3943 171.978Z" fill="#FFF501"/>
<path d="M44.3366 171.978H53.046L49.576 177.601C48.8654 178.629 48.4652 178.615 47.8066 177.601L44.3366 171.978Z" fill="#FFF501"/>
<path d="M52.9797 171.978H61.6891L58.2191 177.601C57.5085 178.629 57.1083 178.615 56.4497 177.601L52.9797 171.978Z" fill="#FFF501"/>
<path d="M78.9221 171.978H87.6314L84.1614 177.601C83.4508 178.629 83.0506 178.615 82.3921 177.601L78.9221 171.978Z" fill="#FFF501"/>
<path d="M61.6568 171.978H70.3662L66.8961 177.601C66.1855 178.629 65.7853 178.615 65.1268 177.601L61.6568 171.978Z" fill="#FFF501"/>
<path d="M87.5991 171.978H96.3085L92.8385 177.601C92.1279 178.629 91.7277 178.615 91.0691 177.601L87.5991 171.978Z" fill="#FFF501"/>
<path d="M70.384 171.978H79.0934L75.6234 177.601C74.9128 178.629 74.5126 178.615 73.854 177.601L70.384 171.978Z" fill="#FFF501"/>
<path d="M96.3264 171.978H105.036L101.566 177.601C100.855 178.629 100.455 178.615 99.7964 177.601L96.3264 171.978Z" fill="#FFF501"/>
<path d="M415.931 171.978H424.641L421.171 177.601C420.46 178.629 420.06 178.615 419.401 177.601L415.931 171.978Z" fill="#FFF501"/>
<path d="M441.874 171.978H450.583L447.113 177.601C446.402 178.629 446.002 178.615 445.344 177.601L441.874 171.978Z" fill="#FFF501"/>
<path d="M424.608 171.978H433.318L429.848 177.601C429.137 178.629 428.737 178.615 428.078 177.601L424.608 171.978Z" fill="#FFF501"/>
<path d="M450.551 171.978H459.26L455.79 177.601C455.079 178.629 454.679 178.615 454.021 177.601L450.551 171.978Z" fill="#FFF501"/>
<path d="M433.335 171.978H442.045L438.575 177.601C437.864 178.629 437.464 178.615 436.805 177.601L433.335 171.978Z" fill="#FFF501"/>
<path d="M459.278 171.978H467.987L464.517 177.601C463.807 178.629 463.406 178.615 462.748 177.601L459.278 171.978Z" fill="#FFF501"/>
<path d="M467.921 171.978H476.63L473.16 177.601C472.45 178.629 472.049 178.615 471.391 177.601L467.921 171.978Z" fill="#FFF501"/>
<path d="M493.863 171.978H502.573L499.103 177.601C498.392 178.629 497.992 178.615 497.333 177.601L493.863 171.978Z" fill="#FFF501"/>
<path d="M476.598 171.978H485.307L481.837 177.601C481.127 178.629 480.727 178.615 480.068 177.601L476.598 171.978Z" fill="#FFF501"/>
<path d="M502.54 171.978H511.25L507.78 177.601C507.069 178.629 506.669 178.615 506.01 177.601L502.54 171.978Z" fill="#FFF501"/>
<path d="M485.325 171.978H494.035L490.565 177.601C489.854 178.629 489.454 178.615 488.795 177.601L485.325 171.978Z" fill="#FFF501"/>
<path d="M511.268 171.978H519.977L516.507 177.601C515.796 178.629 515.396 178.615 514.738 177.601L511.268 171.978Z" fill="#FFF501"/>
<path d="M209.05 171.978H217.76L214.29 177.601C213.579 178.629 213.179 178.615 212.52 177.601L209.05 171.978Z" fill="#FFF501"/>
<path d="M234.993 171.978H243.702L240.232 177.601C239.522 178.629 239.121 178.615 238.463 177.601L234.993 171.978Z" fill="#FFF501"/>
<path d="M217.727 171.978H226.437L222.967 177.601C222.256 178.629 221.856 178.615 221.198 177.601L217.727 171.978Z" fill="#FFF501"/>
<path d="M243.67 171.978H252.379L248.909 177.601C248.199 178.629 247.798 178.615 247.14 177.601L243.67 171.978Z" fill="#FFF501"/>
<path d="M226.455 171.978H235.164L231.694 177.601C230.983 178.629 230.583 178.615 229.925 177.601L226.455 171.978Z" fill="#FFF501"/>
<path d="M252.397 171.978H261.106L257.636 177.601C256.926 178.629 256.526 178.615 255.867 177.601L252.397 171.978Z" fill="#FFF501"/>
<path d="M261.04 171.978H269.75L266.28 177.601C265.569 178.629 265.169 178.615 264.51 177.601L261.04 171.978Z" fill="#FFF501"/>
<path d="M286.983 171.978H295.692L292.222 177.601C291.511 178.629 291.111 178.615 290.453 177.601L286.983 171.978Z" fill="#FFF501"/>
<path d="M269.717 171.978H278.427L274.957 177.601C274.246 178.629 273.846 178.615 273.187 177.601L269.717 171.978Z" fill="#FFF501"/>
<path d="M295.66 171.978H304.369L300.899 177.601C300.188 178.629 299.788 178.615 299.13 177.601L295.66 171.978Z" fill="#FFF501"/>
<path d="M278.444 171.978H287.154L283.684 177.601C282.973 178.629 282.573 178.615 281.914 177.601L278.444 171.978Z" fill="#FFF501"/>
<path d="M304.387 171.978H313.096L309.626 177.601C308.916 178.629 308.515 178.615 307.857 177.601L304.387 171.978Z" fill="#FFF501"/>
<path d="M623.992 171.978H632.701L629.231 177.601C628.52 178.629 628.12 178.615 627.462 177.601L623.992 171.978Z" fill="#FFF501"/>
<path d="M649.934 171.978H658.643L655.173 177.601C654.463 178.629 654.063 178.615 653.404 177.601L649.934 171.978Z" fill="#FFF501"/>
<path d="M632.669 171.978H641.378L637.908 177.601C637.197 178.629 636.797 178.615 636.139 177.601L632.669 171.978Z" fill="#FFF501"/>
<path d="M658.611 171.978H667.32L663.85 177.601C663.14 178.629 662.74 178.615 662.081 177.601L658.611 171.978Z" fill="#FFF501"/>
<path d="M641.396 171.978H650.105L646.635 177.601C645.925 178.629 645.525 178.615 644.866 177.601L641.396 171.978Z" fill="#FFF501"/>
<path d="M667.338 171.978H676.048L672.578 177.601C671.867 178.629 671.467 178.615 670.808 177.601L667.338 171.978Z" fill="#FFF501"/>
<path d="M675.981 171.978H684.691L681.221 177.601C680.51 178.629 680.11 178.615 679.451 177.601L675.981 171.978Z" fill="#FFF501"/>
<path d="M701.924 171.978H710.633L707.163 177.601C706.453 178.629 706.052 178.615 705.394 177.601L701.924 171.978Z" fill="#FFF501"/>
<path d="M684.658 171.978H693.368L689.898 177.601C689.187 178.629 688.787 178.615 688.128 177.601L684.658 171.978Z" fill="#FFF501"/>
<path d="M710.601 171.978H719.31L715.84 177.601C715.13 178.629 714.729 178.615 714.071 177.601L710.601 171.978Z" fill="#FFF501"/>
<path d="M693.386 171.978H702.095L698.625 177.601C697.915 178.629 697.514 178.615 696.856 177.601L693.386 171.978Z" fill="#FFF501"/>
<path d="M719.328 171.978H728.038L724.567 177.601C723.857 178.629 723.457 178.615 722.798 177.601L719.328 171.978Z" fill="#FFF501"/>
<path d="M105.237 171.978H113.946L110.476 177.601C109.765 178.629 109.365 178.615 108.707 177.601L105.237 171.978Z" fill="#FFF501"/>
<path d="M131.179 171.978H139.888L136.418 177.601C135.708 178.629 135.308 178.615 134.649 177.601L131.179 171.978Z" fill="#FFF501"/>
<path d="M113.914 171.978H122.623L119.153 177.601C118.442 178.629 118.042 178.615 117.384 177.601L113.914 171.978Z" fill="#FFF501"/>
<path d="M139.856 171.978H148.565L145.095 177.601C144.385 178.629 143.985 178.615 143.326 177.601L139.856 171.978Z" fill="#FFF501"/>
<path d="M122.641 171.978H131.35L127.88 177.601C127.17 178.629 126.769 178.615 126.111 177.601L122.641 171.978Z" fill="#FFF501"/>
<path d="M148.583 171.978H157.293L153.823 177.601C153.112 178.629 152.712 178.615 152.053 177.601L148.583 171.978Z" fill="#FFF501"/>
<path d="M157.226 171.978H165.936L162.466 177.601C161.755 178.629 161.355 178.615 160.696 177.601L157.226 171.978Z" fill="#FFF501"/>
<path d="M183.169 171.978H191.878L188.408 177.601C187.697 178.629 187.297 178.615 186.639 177.601L183.169 171.978Z" fill="#FFF501"/>
<path d="M165.903 171.978H174.613L171.143 177.601C170.432 178.629 170.032 178.615 169.373 177.601L165.903 171.978Z" fill="#FFF501"/>
<path d="M191.846 171.978H200.555L197.085 177.601C196.375 178.629 195.974 178.615 195.316 177.601L191.846 171.978Z" fill="#FFF501"/>
<path d="M174.631 171.978H183.34L179.87 177.601C179.159 178.629 178.759 178.615 178.101 177.601L174.631 171.978Z" fill="#FFF501"/>
<path d="M200.573 171.978H209.282L205.812 177.601C205.102 178.629 204.702 178.615 204.043 177.601L200.573 171.978Z" fill="#FFF501"/>
<path d="M520.178 171.978H528.887L525.417 177.601C524.707 178.629 524.306 178.615 523.648 177.601L520.178 171.978Z" fill="#FFF501"/>
<path d="M546.12 171.978H554.83L551.36 177.601C550.649 178.629 550.249 178.615 549.59 177.601L546.12 171.978Z" fill="#FFF501"/>
<path d="M528.855 171.978H537.564L534.094 177.601C533.384 178.629 532.983 178.615 532.325 177.601L528.855 171.978Z" fill="#FFF501"/>
<path d="M554.797 171.978H563.507L560.037 177.601C559.326 178.629 558.926 178.615 558.267 177.601L554.797 171.978Z" fill="#FFF501"/>
<path d="M537.582 171.978H546.292L542.822 177.601C542.111 178.629 541.711 178.615 541.052 177.601L537.582 171.978Z" fill="#FFF501"/>
<path d="M563.525 171.978H572.234L568.764 177.601C568.053 178.629 567.653 178.615 566.995 177.601L563.525 171.978Z" fill="#FFF501"/>
<path d="M572.168 171.978H580.877L577.407 177.601C576.696 178.629 576.296 178.615 575.638 177.601L572.168 171.978Z" fill="#FFF501"/>
<path d="M598.11 171.978H606.819L603.349 177.601C602.639 178.629 602.239 178.615 601.58 177.601L598.11 171.978Z" fill="#FFF501"/>
<path d="M580.845 171.978H589.554L586.084 177.601C585.373 178.629 584.973 178.615 584.315 177.601L580.845 171.978Z" fill="#FFF501"/>
<path d="M606.787 171.978H615.496L612.026 177.601C611.316 178.629 610.916 178.615 610.257 177.601L606.787 171.978Z" fill="#FFF501"/>
<path d="M589.572 171.978H598.281L594.811 177.601C594.101 178.629 593.7 178.615 593.042 177.601L589.572 171.978Z" fill="#FFF501"/>
<path d="M615.514 171.978H624.224L620.754 177.601C620.043 178.629 619.643 178.615 618.984 177.601L615.514 171.978Z" fill="#FFF501"/>
<path d="M313.297 171.978H322.007L318.536 177.601C317.826 178.629 317.426 178.615 316.767 177.601L313.297 171.978Z" fill="#FFF501"/>
<path d="M339.24 171.978H347.949L344.479 177.601C343.768 178.629 343.368 178.615 342.71 177.601L339.24 171.978Z" fill="#FFF501"/>
<path d="M321.974 171.978H330.684L327.214 177.601C326.503 178.629 326.103 178.615 325.444 177.601L321.974 171.978Z" fill="#FFF501"/>
<path d="M347.917 171.978H356.626L353.156 177.601C352.445 178.629 352.045 178.615 351.387 177.601L347.917 171.978Z" fill="#FFF501"/>
<path d="M330.701 171.978H339.411L335.941 177.601C335.23 178.629 334.83 178.615 334.171 177.601L330.701 171.978Z" fill="#FFF501"/>
<path d="M356.644 171.978H365.353L361.883 177.601C361.173 178.629 360.772 178.615 360.114 177.601L356.644 171.978Z" fill="#FFF501"/>
<path d="M365.287 171.978H373.996L370.526 177.601C369.816 178.629 369.415 178.615 368.757 177.601L365.287 171.978Z" fill="#FFF501"/>
<path d="M391.229 171.978H399.939L396.469 177.601C395.758 178.629 395.358 178.615 394.699 177.601L391.229 171.978Z" fill="#FFF501"/>
<path d="M373.964 171.978H382.673L379.203 177.601C378.493 178.629 378.092 178.615 377.434 177.601L373.964 171.978Z" fill="#FFF501"/>
<path d="M399.906 171.978H408.616L405.146 177.601C404.435 178.629 404.035 178.615 403.376 177.601L399.906 171.978Z" fill="#FFF501"/>
<path d="M382.691 171.978H391.401L387.931 177.601C387.22 178.629 386.82 178.615 386.161 177.601L382.691 171.978Z" fill="#FFF501"/>
<path d="M408.634 171.978H417.343L413.873 177.601C413.162 178.629 412.762 178.615 412.104 177.601L408.634 171.978Z" fill="#FFF501"/>
<path d="M728.238 171.978H736.948L733.478 177.601C732.767 178.629 732.367 178.615 731.708 177.601L728.238 171.978Z" fill="#FFF501"/>
<path d="M754.181 171.978H762.89L759.42 177.601C758.709 178.629 758.309 178.615 757.651 177.601L754.181 171.978Z" fill="#FFF501"/>
<path d="M736.915 171.978H745.625L742.155 177.601C741.444 178.629 741.044 178.615 740.385 177.601L736.915 171.978Z" fill="#FFF501"/>
<path d="M762.858 171.978H771.567L768.097 177.601C767.386 178.629 766.986 178.615 766.328 177.601L762.858 171.978Z" fill="#FFF501"/>
<path d="M745.643 171.978H754.352L750.882 177.601C750.171 178.629 749.771 178.615 749.113 177.601L745.643 171.978Z" fill="#FFF501"/>
<path d="M771.585 171.978H780.294L776.824 177.601C776.114 178.629 775.714 178.615 775.055 177.601L771.585 171.978Z" fill="#FFF501"/>
<path d="M780.228 171.978H788.937L785.467 177.601C784.757 178.629 784.357 178.615 783.698 177.601L780.228 171.978Z" fill="#FFF501"/>
<path d="M806.17 171.978H814.88L811.41 177.601C810.699 178.629 810.299 178.615 809.64 177.601L806.17 171.978Z" fill="#FFF501"/>
<path d="M788.905 171.978H797.614L794.144 177.601C793.434 178.629 793.034 178.615 792.375 177.601L788.905 171.978Z" fill="#FFF501"/>
<path d="M814.847 171.978H823.557L820.087 177.601C819.376 178.629 818.976 178.615 818.317 177.601L814.847 171.978Z" fill="#FFF501"/>
<path d="M797.632 171.978H806.342L802.872 177.601C802.161 178.629 801.761 178.615 801.102 177.601L797.632 171.978Z" fill="#FFF501"/>
<path d="M823.575 171.978H832.284L828.814 177.601C828.103 178.629 827.703 178.615 827.045 177.601L823.575 171.978Z" fill="#FFF501"/>
<path d="M831.831 171.978H840.541L837.071 177.601C836.36 178.629 835.96 178.615 835.301 177.601L831.831 171.978Z" fill="#FFF501"/>
<path d="M857.774 171.978H866.483L863.013 177.601C862.302 178.629 861.902 178.615 861.244 177.601L857.774 171.978Z" fill="#FFF501"/>
<path d="M840.508 171.978H849.218L845.748 177.601C845.037 178.629 844.637 178.615 843.978 177.601L840.508 171.978Z" fill="#FFF501"/>
<path d="M866.451 171.978H875.16L871.69 177.601C870.979 178.629 870.579 178.615 869.921 177.601L866.451 171.978Z" fill="#FFF501"/>
<path d="M849.236 171.978H857.945L854.475 177.601C853.764 178.629 853.364 178.615 852.706 177.601L849.236 171.978Z" fill="#FFF501"/>
<path d="M875.178 171.978H883.887L880.417 177.601C879.707 178.629 879.307 178.615 878.648 177.601L875.178 171.978Z" fill="#FFF501"/>
<path d="M883.821 171.978H892.53L889.06 177.601C888.35 178.629 887.95 178.615 887.291 177.601L883.821 171.978Z" fill="#FFF501"/>
<path d="M909.763 171.978H918.473L915.003 177.601C914.292 178.629 913.892 178.615 913.233 177.601L909.763 171.978Z" fill="#FFF501"/>
<path d="M892.498 171.978H901.207L897.737 177.601C897.027 178.629 896.627 178.615 895.968 177.601L892.498 171.978Z" fill="#FFF501"/>
<path d="M918.44 171.978H927.15L923.68 177.601C922.969 178.629 922.569 178.615 921.91 177.601L918.44 171.978Z" fill="#FFF501"/>
<path d="M901.225 171.978H909.935L906.465 177.601C905.754 178.629 905.354 178.615 904.695 177.601L901.225 171.978Z" fill="#FFF501"/>
<path d="M927.168 171.978H935.877L932.407 177.601C931.696 178.629 931.296 178.615 930.638 177.601L927.168 171.978Z" fill="#FFF501"/>
<path d="M935.771 171.648H945.38L941.551 177.852C940.767 178.986 940.326 178.971 939.599 177.852L935.771 171.648Z" fill="#FFF501"/>
<path d="M964.392 171.648H974.001L970.173 177.852C969.389 178.986 968.947 178.971 968.221 177.852L964.392 171.648Z" fill="#FFF501"/>
<path d="M945.344 171.648H954.953L951.124 177.852C950.34 178.986 949.899 178.971 949.172 177.852L945.344 171.648Z" fill="#FFF501"/>
<path d="M973.966 171.648H983.575L979.746 177.852C978.962 178.986 978.521 178.971 977.794 177.852L973.966 171.648Z" fill="#FFF501"/>
<path d="M954.973 171.648H964.582L960.753 177.852C959.969 178.986 959.528 178.971 958.801 177.852L954.973 171.648Z" fill="#FFF501"/>
<path d="M983.594 171.648H993.203L989.375 177.852C988.591 178.986 988.149 178.971 987.423 177.852L983.594 171.648Z" fill="#FFF501"/>
</svg>
